<?xml version="1.0" encoding="UTF-8" standalone="no"?>
<!-- Created with Inkscape (http://www.inkscape.org/) -->

<svg
   width="88mm"
   height="109.99999mm"
   viewBox="0 0 88 109.99999"
   version="1.1"
   id="svg1"
   xml:space="preserve"
   inkscape:export-filename="flagella3.svg"
   inkscape:export-xdpi="25.4"
   inkscape:export-ydpi="25.4"
   xmlns:inkscape="http://www.inkscape.org/namespaces/inkscape"
   xmlns:sodipodi="http://sodipodi.sourceforge.net/DTD/sodipodi-0.dtd"
   xmlns="http://www.w3.org/2000/svg"
   xmlns:svg="http://www.w3.org/2000/svg"><sodipodi:namedview
     id="namedview1"
     pagecolor="#ffffff"
     bordercolor="#111111"
     borderopacity="1"
     inkscape:showpageshadow="0"
     inkscape:pageopacity="0"
     inkscape:pagecheckerboard="1"
     inkscape:deskcolor="#d1d1d1"
     inkscape:document-units="mm" /><defs
     id="defs1" /><g
     inkscape:groupmode="layer"
     id="layer8"
     inkscape:label="Layer 8"
     style="display:inline;opacity:1"><path
       style="fill:#aeaeae;fill-opacity:1;stroke:none;stroke-width:0.264583px;stroke-linecap:butt;stroke-linejoin:miter;stroke-opacity:1"
       d="m 42.234773,14.37972 c 3.973571,1.601108 10.226337,4.17525 9.935052,8.072327 -0.291285,3.897077 -8.846956,6.216369 -14.909168,9.924933 -6.062213,3.708561 -11.725286,7.293721 -11.666565,13.927526 0.05872,6.633805 10.184183,11.533386 18.316411,13.55688 8.132228,2.023494 18.292619,3.846764 18.429043,9.645507 0.136425,5.798743 -9.318281,7.05083 -20.900162,7.744304 -11.581881,0.693475 -22.138526,1.566497 -26.426595,6.947037 -4.288069,5.38054 -1.718331,15.284103 8.682095,16.821556 10.400427,1.53746 27.041107,0.90439 34.818817,3.43666 -4.521924,-3.22412 -19.806027,-3.5271 -24.961021,-3.97929 C 28.397686,100.02497 16.406827,99.475913 15.683319,91.336447 14.959811,83.196983 27.945493,81.213764 36.175396,80.85201 44.405298,80.490256 65.925115,81.851378 67.557552,71.175091 69.189989,60.498804 53.630024,57.066687 46.304507,55.167479 38.978989,53.26827 32.326488,52.417256 32.196102,45.217363 32.065716,38.017469 58.607597,33.178757 60.024669,24.264004 61.441741,15.349251 50.645554,10.400426 50.645554,10.400426 Z"
       id="path8"
       sodipodi:nodetypes="csszzzzzscssszszzcc" /><ellipse
       style="fill:#eeeeee;fill-opacity:1;fill-rule:evenodd;stroke:#aeaeae;stroke-width:1.265;stroke-linecap:round;stroke-linejoin:round;stroke-opacity:1;paint-order:markers fill stroke"
       id="path1-0-4-2-5-4-5"
       cx="44.508972"
       cy="9.4645519"
       rx="6.2670674"
       ry="5.2438731" /></g></svg>
