<?xml version="1.0" encoding="UTF-8" standalone="no"?>
<!-- Created with Inkscape (http://www.inkscape.org/) -->

<svg
   width="88mm"
   height="109.99999mm"
   viewBox="0 0 88 109.99999"
   version="1.1"
   id="svg1"
   xml:space="preserve"
   inkscape:export-filename="flagella3.svg"
   inkscape:export-xdpi="25.4"
   inkscape:export-ydpi="25.4"
   xmlns:inkscape="http://www.inkscape.org/namespaces/inkscape"
   xmlns:sodipodi="http://sodipodi.sourceforge.net/DTD/sodipodi-0.dtd"
   xmlns="http://www.w3.org/2000/svg"
   xmlns:svg="http://www.w3.org/2000/svg"><sodipodi:namedview
     id="namedview1"
     pagecolor="#ffffff"
     bordercolor="#111111"
     borderopacity="1"
     inkscape:showpageshadow="0"
     inkscape:pageopacity="0"
     inkscape:pagecheckerboard="1"
     inkscape:deskcolor="#d1d1d1"
     inkscape:document-units="mm" /><defs
     id="defs1" /><g
     inkscape:groupmode="layer"
     id="layer4"
     inkscape:label="Layer 4"
     style="display:inline;opacity:1"><path
       style="fill:#aeaeae;fill-opacity:1;stroke:none;stroke-width:0.264583px;stroke-linecap:butt;stroke-linejoin:miter;stroke-opacity:1"
       d="m 38.436356,10.309988 c -4.974116,5.030937 -6.539053,5.810559 -6.602007,11.757003 -0.06295,5.946444 8.075496,12.390074 12.674623,14.741474 4.599128,2.3514 16.265692,6.60201 16.265692,10.400427 0,3.798416 -12.570949,8.229901 -20.258222,10.355204 -7.68727,2.125305 -23.528237,7.917802 -23.697679,15.419763 -0.169442,7.501961 12.831952,10.436043 27.181995,11.454655 14.350043,1.018613 27.796429,5.04826 27.69502,8.112977 -0.101409,3.064717 -8.585231,6.841662 -17.704001,8.680839 -9.11877,1.83918 -17.364189,5.63917 -19.986906,7.20342 3.436664,-0.90439 14.612838,-4.02963 20.773585,-5.16143 C 60.939204,102.14253 73.501557,98.134075 74.31395,92.512147 75.126342,86.890219 53.814251,82.841657 44,81.304202 34.185749,79.766748 20.891291,78.229294 21.343484,72.893423 21.795676,67.557552 36.084957,63.09856 42.50609,61.045981 48.927223,58.993401 65.350937,55.716878 65.589849,47.778011 65.828761,39.839144 56.471562,36.793692 51.40854,34.095311 46.345518,31.39693 37.609405,28.431304 37.609405,21.886115 c 0,-6.54519 6.899567,-7.415957 6.899567,-7.415957 z"
       id="path4"
       sodipodi:nodetypes="czssszzzzczzssszzscc" /><ellipse
       style="fill:#eeeeee;fill-opacity:1;fill-rule:evenodd;stroke:#aeaeae;stroke-width:1.265;stroke-linecap:round;stroke-linejoin:round;stroke-opacity:1;paint-order:markers fill stroke"
       id="path1-0-4"
       cx="44.508972"
       cy="9.4645519"
       rx="6.2670674"
       ry="5.2438731" /></g></svg>
