<?xml version="1.0" encoding="UTF-8" standalone="no"?>
<!-- Created with Inkscape (http://www.inkscape.org/) -->

<svg
   width="88mm"
   height="109.99999mm"
   viewBox="0 0 88 109.99999"
   version="1.1"
   id="svg1"
   xml:space="preserve"
   inkscape:export-filename="flagella3.svg"
   inkscape:export-xdpi="25.4"
   inkscape:export-ydpi="25.4"
   xmlns:inkscape="http://www.inkscape.org/namespaces/inkscape"
   xmlns:sodipodi="http://sodipodi.sourceforge.net/DTD/sodipodi-0.dtd"
   xmlns="http://www.w3.org/2000/svg"
   xmlns:svg="http://www.w3.org/2000/svg"><sodipodi:namedview
     id="namedview1"
     pagecolor="#ffffff"
     bordercolor="#111111"
     borderopacity="1"
     inkscape:showpageshadow="0"
     inkscape:pageopacity="0"
     inkscape:pagecheckerboard="1"
     inkscape:deskcolor="#d1d1d1"
     inkscape:document-units="mm" /><defs
     id="defs1" /><g
     inkscape:groupmode="layer"
     id="layer3"
     inkscape:label="Layer 3"
     style="display:inline;opacity:1"><path
       style="fill:#aeaeae;fill-opacity:1;stroke:none;stroke-width:0.264583px;stroke-linecap:butt;stroke-linejoin:miter;stroke-opacity:1"
       d="m 39.073248,12.209196 c -5.307823,7.615201 3.78271,14.005898 8.761103,18.166896 4.978393,4.160998 8.65278,6.95966 7.934304,12.328652 -0.718475,5.368991 -12.072475,7.202575 -20.980035,10.949027 -8.90756,3.746452 -15.987417,8.313457 -15.156072,12.917834 0.831346,4.604377 4.988074,8.952952 25.707766,10.935393 20.719693,1.982441 28.142399,5.499672 27.8866,8.889005 -0.255797,3.389331 -3.332589,8.677093 -23.284884,8.549194 -19.952298,-0.1279 -26.408552,1.938551 -33.123267,6.287133 4.604376,-1.406896 3.389333,-1.982443 11.319092,-3.261436 C 36.067614,96.6919 46.789214,97.106632 51.905188,97.234531 57.021161,97.36243 75.714138,96.319727 75.94085,86.658552 76.167562,76.997377 56.747272,75.676442 49.413679,74.767356 41.317224,73.763704 23.890687,71.697772 24.130969,66.25374 24.371251,60.809708 35.663853,57.508293 41.637662,55.723508 47.61147,53.938723 59.605006,52.782933 60.624286,45.212416 61.643567,37.6419 58.755756,33.765425 55.437369,29.672646 51.844732,25.241617 44.189226,21.614988 44.508972,18.545404 c 0.319746,-3.069584 2.813783,-4.540426 2.813783,-4.540426 z"
       id="path3"
       sodipodi:nodetypes="czzzsssscsszszzzsscc" /><ellipse
       style="fill:#eeeeee;fill-opacity:1;fill-rule:evenodd;stroke:#aeaeae;stroke-width:1.265;stroke-linecap:round;stroke-linejoin:round;stroke-opacity:1;paint-order:markers fill stroke"
       id="path1-0"
       cx="44.508972"
       cy="9.4645519"
       rx="6.2670674"
       ry="5.2438731" /></g></svg>
