<?xml version="1.0" encoding="UTF-8" standalone="no"?>
<!-- Created with Inkscape (http://www.inkscape.org/) -->

<svg
   width="88mm"
   height="109.99999mm"
   viewBox="0 0 88 109.99999"
   version="1.1"
   id="svg1"
   xml:space="preserve"
   inkscape:export-filename="flagella3.svg"
   inkscape:export-xdpi="25.4"
   inkscape:export-ydpi="25.4"
   xmlns:inkscape="http://www.inkscape.org/namespaces/inkscape"
   xmlns:sodipodi="http://sodipodi.sourceforge.net/DTD/sodipodi-0.dtd"
   xmlns="http://www.w3.org/2000/svg"
   xmlns:svg="http://www.w3.org/2000/svg"><sodipodi:namedview
     id="namedview1"
     pagecolor="#ffffff"
     bordercolor="#111111"
     borderopacity="1"
     inkscape:showpageshadow="0"
     inkscape:pageopacity="0"
     inkscape:pagecheckerboard="1"
     inkscape:deskcolor="#d1d1d1"
     inkscape:document-units="mm" /><defs
     id="defs1" /><g
     inkscape:groupmode="layer"
     id="layer7"
     inkscape:label="Layer 7"
     style="display:inline;opacity:1"><path
       style="display:inline;fill:#aeaeae;fill-opacity:1;stroke:none;stroke-width:0.264583px;stroke-linecap:butt;stroke-linejoin:miter;stroke-opacity:1"
       d="m 42.234773,14.37972 c 2.351402,1.718331 4.385908,2.944336 -5.426307,11.485688 -9.812214,8.541352 -9.857796,11.666565 -9.767357,15.103228 0.09044,3.436662 5.161912,10.454832 14.651034,13.204018 9.676918,2.803594 18.178136,2.894031 18.268576,7.054202 0.09044,4.16017 -19.172962,6.692449 -28.21681,8.862972 -8.761084,2.10266 -20.077344,6.511571 -20.077344,14.560597 0,7.7635 6.963764,10.852619 11.39525,11.39525 4.431485,0.542631 18.359012,-1.1757 23.333129,-0.633069 4.974119,0.542632 16.188491,2.080086 18.720768,3.5271 -7.14464,-3.617538 -14.37972,-5.064553 -19.806029,-5.335869 -5.42631,-0.271315 -20.077345,1.899208 -24.689708,-0.723508 -4.612363,-2.622716 -6.444452,-3.723059 -5.96894,-8.501218 0.480045,-4.823709 9.224726,-8.229903 15.103228,-9.767357 C 35.632765,73.0743 63.849574,71.808161 65.206151,62.131242 66.562728,52.454324 52.183009,53.358709 45.128806,50.374239 38.074604,47.389769 33.643118,45.761876 33.733557,40.154689 c 0.09044,-5.607186 18.630329,-15.826735 18.811206,-21.072168 0.180877,-5.245432 -2.351401,-7.77771 -2.351401,-7.77771 z"
       id="path7"
       sodipodi:nodetypes="czzsssssscsssssssscc" /><ellipse
       style="fill:#eeeeee;fill-opacity:1;fill-rule:evenodd;stroke:#aeaeae;stroke-width:1.265;stroke-linecap:round;stroke-linejoin:round;stroke-opacity:1;paint-order:markers fill stroke"
       id="path1-0-4-2-5-4"
       cx="44.508972"
       cy="9.4645519"
       rx="6.2670674"
       ry="5.2438731" /></g></svg>
