<?xml version="1.0" encoding="UTF-8" standalone="no"?>
<!-- Created with Inkscape (http://www.inkscape.org/) -->

<svg
   width="88mm"
   height="109.99999mm"
   viewBox="0 0 88 109.99999"
   version="1.1"
   id="svg1"
   xml:space="preserve"
   inkscape:export-filename="flagella3.svg"
   inkscape:export-xdpi="25.4"
   inkscape:export-ydpi="25.4"
   xmlns:inkscape="http://www.inkscape.org/namespaces/inkscape"
   xmlns:sodipodi="http://sodipodi.sourceforge.net/DTD/sodipodi-0.dtd"
   xmlns="http://www.w3.org/2000/svg"
   xmlns:svg="http://www.w3.org/2000/svg"><sodipodi:namedview
     id="namedview1"
     pagecolor="#ffffff"
     bordercolor="#111111"
     borderopacity="1"
     inkscape:showpageshadow="0"
     inkscape:pageopacity="0"
     inkscape:pagecheckerboard="1"
     inkscape:deskcolor="#d1d1d1"
     inkscape:document-units="mm" /><defs
     id="defs1" /><g
     inkscape:groupmode="layer"
     id="layer5"
     inkscape:label="Layer 5"
     style="display:inline;opacity:1"><path
       style="fill:#aeaeae;fill-opacity:1;stroke:none;stroke-width:0.264583px;stroke-linecap:butt;stroke-linejoin:miter;stroke-opacity:1"
       d="m 39.073248,12.209196 c -3.382569,2.982308 -6.645318,6.604904 -6.743967,12.577749 -0.09865,5.972845 9.365902,10.385374 14.226077,12.687561 4.860175,2.302187 13.173633,6.650765 13.045733,12.789934 -0.127899,6.139167 -16.626914,9.59245 -25.579868,12.662035 -8.952953,3.069582 -20.877337,9.452645 -19.057001,16.626911 2.174289,8.569256 21.614988,8.377408 30.567942,8.825056 8.952954,0.447648 24.556672,0.831348 27.562308,6.394967 3.005635,5.563621 -2.366138,13.045731 -2.366138,13.045731 1.91849,-2.04639 4.668326,-4.98807 5.052025,-10.104045 C 76.164057,92.599123 71.62363,90.041134 66.251858,88.186594 60.880085,86.332053 41.695184,85.756507 33.829375,84.733312 25.963565,83.710118 18.353555,82.559023 18.225656,78.210445 18.097757,73.861868 32.230633,66.379757 39.009298,64.717065 45.787963,63.054374 61.455633,61.263784 64.141518,53.334024 66.827404,45.404265 56.531508,36.77106 51.287635,33.893325 46.043762,31.01559 39.073248,27.946006 39.201147,24.620623 39.329047,21.29524 44.44502,15.47582 47.578554,13.941028 Z"
       id="path5"
       sodipodi:nodetypes="czzssszzczzzsszzzcc" /><ellipse
       style="fill:#eeeeee;fill-opacity:1;fill-rule:evenodd;stroke:#aeaeae;stroke-width:1.265;stroke-linecap:round;stroke-linejoin:round;stroke-opacity:1;paint-order:markers fill stroke"
       id="path1-0-4-2"
       cx="44.508972"
       cy="9.4645519"
       rx="6.2670674"
       ry="5.2438731" /></g></svg>
