<?xml version="1.0" encoding="UTF-8" standalone="no"?>
<!-- Created with Inkscape (http://www.inkscape.org/) -->

<svg
   width="88mm"
   height="109.99999mm"
   viewBox="0 0 88 109.99999"
   version="1.1"
   id="svg1"
   xml:space="preserve"
   inkscape:export-filename="flagella3.svg"
   inkscape:export-xdpi="25.4"
   inkscape:export-ydpi="25.4"
   xmlns:inkscape="http://www.inkscape.org/namespaces/inkscape"
   xmlns:sodipodi="http://sodipodi.sourceforge.net/DTD/sodipodi-0.dtd"
   xmlns="http://www.w3.org/2000/svg"
   xmlns:svg="http://www.w3.org/2000/svg"><sodipodi:namedview
     id="namedview1"
     pagecolor="#ffffff"
     bordercolor="#111111"
     borderopacity="1"
     inkscape:showpageshadow="0"
     inkscape:pageopacity="0"
     inkscape:pagecheckerboard="1"
     inkscape:deskcolor="#d1d1d1"
     inkscape:document-units="mm" /><defs
     id="defs1" /><g
     inkscape:groupmode="layer"
     id="layer9"
     inkscape:label="Layer 9"
     style="display:inline"><path
       style="fill:#aeaeae;fill-opacity:1;stroke:none;stroke-width:0.264583px;stroke-linecap:butt;stroke-linejoin:miter;stroke-opacity:1"
       d="m 42.234773,14.37972 c 2.554496,2.107734 11.799506,7.228456 11.486873,12.648571 -0.312632,5.420115 -11.622416,10.67675 -17.542314,12.672573 -5.919899,1.995824 -13.746367,3.798915 -13.841025,11.939513 -0.09466,8.140598 17.27375,11.666565 23.875759,13.746649 6.602009,2.080084 20.381577,4.153747 19.045061,10.093535 -1.336517,5.939788 -18.396472,6.253889 -26.445498,6.886958 -8.049026,0.633068 -26.0216,2.385089 -28.8653953,9.337108 C 7.1044387,98.656646 16.598676,105.30143 21.52436,106.53654 14.831912,101.56242 10.634281,98.487515 11.629105,94.056029 12.623928,89.624543 29.93514,85.464373 40.787759,85.102619 51.640378,84.740865 66.143453,85.383023 69.004568,75.787454 71.865683,66.191885 51.097747,62.583435 45.038368,60.50335 38.978989,58.423264 26.36608,56.516797 27.221985,50.826431 28.07789,45.136065 38.932439,44.992598 47.208892,40.606882 55.485345,36.221166 60.093163,34.295469 60.322473,26.227162 60.551783,18.158855 50.067345,12.149792 50.067345,12.149792 Z"
       id="path9"
       sodipodi:nodetypes="czszzzzzcsszzzzzcc" /><ellipse
       style="fill:#eeeeee;fill-opacity:1;fill-rule:evenodd;stroke:#aeaeae;stroke-width:1.265;stroke-linecap:round;stroke-linejoin:round;stroke-opacity:1;paint-order:markers fill stroke"
       id="path1-0-4-2-5-4-5-9"
       cx="44.508972"
       cy="9.4645519"
       rx="6.2670674"
       ry="5.2438731" /></g></svg>
