<?xml version="1.0" encoding="UTF-8" standalone="no"?>
<!-- Created with Inkscape (http://www.inkscape.org/) -->

<svg
   width="88mm"
   height="109.99999mm"
   viewBox="0 0 88 109.99999"
   version="1.1"
   id="svg1"
   xml:space="preserve"
   inkscape:export-filename="flagella3.svg"
   inkscape:export-xdpi="25.4"
   inkscape:export-ydpi="25.4"
   xmlns:inkscape="http://www.inkscape.org/namespaces/inkscape"
   xmlns:sodipodi="http://sodipodi.sourceforge.net/DTD/sodipodi-0.dtd"
   xmlns="http://www.w3.org/2000/svg"
   xmlns:svg="http://www.w3.org/2000/svg"><sodipodi:namedview
     id="namedview1"
     pagecolor="#ffffff"
     bordercolor="#111111"
     borderopacity="1"
     inkscape:showpageshadow="0"
     inkscape:pageopacity="0"
     inkscape:pagecheckerboard="1"
     inkscape:deskcolor="#d1d1d1"
     inkscape:document-units="mm" /><defs
     id="defs1" /><g
     inkscape:groupmode="layer"
     id="layer6"
     inkscape:label="Layer 6"
     style="display:inline;opacity:1"><path
       style="fill:#aeaeae;fill-opacity:1;stroke:none;stroke-width:0.264583px;stroke-linecap:butt;stroke-linejoin:miter;stroke-opacity:1"
       d="m 39.069428,12.299634 c -3.255786,4.974117 -10.21955,13.565774 -8.862973,20.891292 1.356577,7.325516 11.485689,13.746649 18.087697,15.55542 6.60201,1.808768 15.64586,4.431485 15.464983,8.410778 -0.180877,3.979294 -7.687273,7.958588 -21.162608,11.214373 -13.475335,3.255785 -27.855053,9.04385 -27.583738,15.826737 0.271316,6.782885 8.229902,7.054202 14.922352,7.415956 6.692447,0.361754 14.470157,0.633068 20.167782,2.170523 5.697625,1.537454 19.986905,6.873327 24.056639,8.953407 C 69.547199,99.301462 57.880633,92.699452 47.480207,90.800244 37.079781,88.901035 19.879312,90.569707 19.353837,84.559988 18.828361,78.550268 35.542326,74.340439 42.596529,72.531669 49.650731,70.722899 67.557552,65.115713 68.552375,58.151949 69.547199,51.188185 58.785019,47.751523 52.002132,45.128807 45.219245,42.50609 37.649742,37.894454 37.260657,32.37698 36.871573,26.859505 48.022838,13.74665 48.022838,13.74665 Z"
       id="path6"
       sodipodi:nodetypes="csssssssczzsszzcc" /><ellipse
       style="fill:#eeeeee;fill-opacity:1;fill-rule:evenodd;stroke:#aeaeae;stroke-width:1.265;stroke-linecap:round;stroke-linejoin:round;stroke-opacity:1;paint-order:markers fill stroke"
       id="path1-0-4-2-5"
       cx="44.508972"
       cy="9.4645519"
       rx="6.2670674"
       ry="5.2438731" /></g></svg>
