<?xml version="1.0" encoding="UTF-8" standalone="no"?>
<!-- Created with Inkscape (http://www.inkscape.org/) -->

<svg
   width="88mm"
   height="109.99999mm"
   viewBox="0 0 88 109.99999"
   version="1.1"
   id="svg1"
   xml:space="preserve"
   inkscape:export-filename="flagella3.svg"
   inkscape:export-xdpi="25.4"
   inkscape:export-ydpi="25.4"
   xmlns:inkscape="http://www.inkscape.org/namespaces/inkscape"
   xmlns:sodipodi="http://sodipodi.sourceforge.net/DTD/sodipodi-0.dtd"
   xmlns="http://www.w3.org/2000/svg"
   xmlns:svg="http://www.w3.org/2000/svg"><sodipodi:namedview
     id="namedview1"
     pagecolor="#ffffff"
     bordercolor="#111111"
     borderopacity="1"
     inkscape:showpageshadow="0"
     inkscape:pageopacity="0"
     inkscape:pagecheckerboard="1"
     inkscape:deskcolor="#d1d1d1"
     inkscape:document-units="mm" /><defs
     id="defs1" /><g
     inkscape:label="Layer 1"
     inkscape:groupmode="layer"
     id="layer1"
     style="display:inline;opacity:1"><path
       style="fill:#aeaeae;fill-opacity:1;stroke:none;stroke-width:0.264583px;stroke-linecap:butt;stroke-linejoin:miter;stroke-opacity:1"
       d="m 41.059073,14.108404 c 7.235079,6.059379 12.73169,11.980152 11.576127,16.82156 -0.77911,3.264202 -0.09044,6.692447 -15.103226,13.475334 -15.01279,6.782887 -16.640684,9.224724 -16.550245,14.831912 0.08795,5.452665 12.765357,9.87617 24.689709,12.209195 12.48051,2.441839 23.24269,4.069733 22.519182,9.586481 -0.723509,5.516748 -19.806028,8.501219 -23.152253,8.772533 -3.346223,0.271317 -22.108161,1.656379 -28.669,5.335872 -6.56084,3.679493 -7.9585876,7.777709 -7.9585876,7.777709 0,0 4.7028006,-4.16017 9.4056026,-6.511571 4.860175,-2.430088 24.418391,-4.431485 29.663824,-5.064556 C 52.725639,90.709804 69.908951,88.448842 70.903774,81.213764 71.898599,73.978685 60.412912,70.722899 47.118452,68.28106 34.965715,66.048925 26.769793,63.126064 26.408039,57.971071 26.046285,52.816077 39.017127,49.572188 45.128805,46.756697 53.177832,43.04872 58.423264,37.351095 58.785018,30.56821 59.223323,22.349986 49.560291,12.209196 49.560291,12.209196 Z"
       id="path2"
       sodipodi:nodetypes="csssssszcsscsssscc" /><ellipse
       style="fill:#eeeeee;fill-opacity:1;fill-rule:evenodd;stroke:#aeaeae;stroke-width:1.265;stroke-linecap:round;stroke-linejoin:round;stroke-opacity:1;paint-order:markers fill stroke"
       id="path1"
       cx="44.508972"
       cy="9.4645519"
       rx="6.2670674"
       ry="5.2438731" /></g></svg>
